<svg xmlns="http://www.w3.org/2000/svg" xmlns:xlink="http://www.w3.org/1999/xlink" width="1920" zoomAndPan="magnify" viewBox="0 0 1440 809.999993" height="1080" preserveAspectRatio="xMidYMid meet" version="1.0"><defs><clipPath id="dc548f5adc"><path d="M 391.871094 84.363281 L 1057.023438 84.363281 L 1057.023438 749.46875 L 391.871094 749.46875 Z M 391.871094 84.363281 " clip-rule="nonzero"/></clipPath><clipPath id="461ae7d397"><path d="M 641.359375 179.277344 L 1057.023438 179.277344 L 1057.023438 641 L 641.359375 641 Z M 641.359375 179.277344 " clip-rule="nonzero"/></clipPath><clipPath id="974b1c8232"><path d="M 391.871094 276 L 734.359375 276 L 734.359375 749.46875 L 391.871094 749.46875 Z M 391.871094 276 " clip-rule="nonzero"/></clipPath></defs><rect x="-144" width="1728" fill="#ffffff" y="-80.999999" height="971.999992" fill-opacity="1"/><rect x="-144" width="1728" fill="#ffffff" y="-80.999999" height="971.999992" fill-opacity="1"/><g clip-path="url(#dc548f5adc)"><path fill="#dedfdd" d="M 1024.871094 559.4375 C 1010.398438 589.941406 991.863281 617.242188 970.210938 640.980469 C 885.539062 733.96875 753.242188 772.328125 630.210938 735.792969 L 630.179688 735.792969 C 613.914062 730.96875 597.792969 724.820312 581.964844 717.320312 C 451.753906 655.570312 380.175781 520.195312 393.445312 384.582031 C 393.445312 384.582031 393.445312 384.582031 393.445312 384.550781 C 397.09375 347.371094 407.09375 310.160156 424.042969 274.445312 C 443.75 232.910156 470.933594 197.339844 503.265625 168.601562 C 552.25 125.007812 613 97.121094 677.164062 87.824219 C 739.738281 78.792969 805.550781 87.4375 866.949219 116.5625 C 907.3125 135.714844 942.027344 161.925781 970.328125 193.046875 C 1058.410156 289.800781 1084.414062 433.886719 1024.871094 559.4375 " fill-opacity="1" fill-rule="nonzero"/></g><path fill="#d5d7d4" d="M 1030.96875 395.84375 C 1030.335938 408.160156 1029.058594 420.550781 1027.078125 432.9375 C 1022.261719 463.3125 1013.339844 493.542969 1000.242188 522.992188 C 921.511719 699.417969 723.265625 759.527344 557.304688 680.871094 C 508.664062 657.789062 468.238281 624.375 437.367188 584.585938 C 437.367188 584.585938 437.226562 584.515625 437.226562 584.445312 C 422.925781 559.945312 411.878906 533.753906 404.300781 506.566406 C 383.34375 432.019531 388.300781 349.894531 424.054688 274.429688 C 495.921875 122.851562 667.6875 50.78125 823.308594 99.417969 C 823.308594 99.417969 823.308594 99.488281 823.378906 99.488281 C 838.035156 104.089844 852.621094 109.753906 866.921875 116.550781 C 906.570312 135.382812 940.769531 161.011719 968.804688 191.453125 C 968.804688 191.453125 968.804688 191.453125 968.875 191.523438 C 975.25 198.390625 981.265625 205.46875 986.929688 212.832031 C 987.003906 212.832031 987.003906 212.902344 987.074219 212.972656 C 1019.148438 268.054688 1034.230469 331.417969 1030.96875 395.84375 " fill-opacity="1" fill-rule="nonzero"/><path fill="#e5e6e3" d="M 872.800781 423.101562 C 864.300781 441.011719 803.921875 577.691406 625.699219 589.46875 C 578.28125 592.605469 529.550781 583.597656 483.601562 561.792969 C 453.367188 547.492188 426.816406 528.65625 404.300781 506.566406 C 383.34375 432.019531 388.300781 349.894531 424.054688 274.429688 C 495.921875 122.851562 667.6875 50.78125 823.308594 99.417969 C 823.308594 99.417969 823.308594 99.488281 823.378906 99.488281 C 901.046875 171.652344 921.652344 320.089844 872.800781 423.101562 " fill-opacity="1" fill-rule="nonzero"/><path fill="#ffffff" d="M 539.082031 267.699219 C 487.28125 322.089844 470.558594 369.085938 444.8125 336.351562 C 419.738281 304.46875 458.894531 243.773438 499.382812 207.363281 C 539.867188 170.953125 615.851562 146.210938 635.304688 187.980469 C 644.097656 206.859375 589.46875 214.796875 539.082031 267.699219 " fill-opacity="1" fill-rule="nonzero"/><g clip-path="url(#461ae7d397)"><path fill="#629fdb" d="M 1024.871094 559.4375 C 1010.398438 589.941406 991.863281 617.242188 970.210938 640.980469 C 983.507812 505.367188 911.960938 369.960938 781.75 308.214844 C 736.445312 286.710938 688.695312 276.386719 641.65625 276.0625 C 726.53125 191.722656 852.652344 158.128906 970.328125 193.046875 C 1058.410156 289.800781 1084.414062 433.886719 1024.871094 559.4375 " fill-opacity="1" fill-rule="nonzero"/></g><path fill="#f1d81d" d="M 646.128906 153.777344 C 632.566406 196.695312 631.976562 238 642.304688 275.589844 C 615.972656 266.0625 592.171875 253.855469 571.34375 239.378906 C 551.28125 225.523438 533.953125 209.582031 519.742188 191.929688 C 513.679688 184.457031 508.179688 176.664062 503.265625 168.601562 C 552.25 125.007812 613 97.121094 677.164062 87.824219 C 663.867188 108.796875 653.363281 130.886719 646.128906 153.777344 " fill-opacity="1" fill-rule="nonzero"/><g clip-path="url(#974b1c8232)"><path fill="#f0393b" d="M 734.050781 749.46875 C 724.449219 748.15625 663.707031 755.492188 581.964844 717.320312 C 451.390625 656.347656 380.175781 520.195312 393.445312 384.582031 C 393.445312 384.582031 393.445312 384.582031 393.445312 384.550781 C 409.417969 367.019531 427.101562 351.429688 446.105469 337.929688 C 465.667969 323.980469 486.644531 312.246094 508.59375 302.921875 C 550.367188 285.035156 595.703125 275.769531 641.65625 276.0625 C 615.121094 302.421875 607.277344 347.960938 603.414062 387.300781 C 588.09375 543.4375 645.996094 652.6875 734.050781 749.46875 " fill-opacity="1" fill-rule="nonzero"/></g><path fill="#fae654" d="M 571.34375 239.378906 C 551.28125 225.523438 533.953125 209.582031 519.742188 191.929688 C 561.429688 165.011719 618.765625 152.480469 635.300781 187.988281 C 642.214844 202.816406 609.941406 210.875 571.34375 239.378906 " fill-opacity="1" fill-rule="nonzero"/><path fill="#4c90d4" d="M 1030.960938 395.847656 C 1030.34375 408.171875 1029.050781 420.558594 1027.078125 432.945312 C 1022.253906 463.300781 1013.339844 493.542969 1000.25 522.988281 C 991.628906 542.320312 981.566406 560.261719 970.238281 576.792969 C 963.445312 506.515625 934.347656 439.535156 886.777344 386.464844 C 906.515625 320.097656 902.25 242.585938 876.566406 179.398438 C 907.785156 179.425781 939.320312 183.871094 970.238281 193.019531 C 970.265625 193.019531 970.300781 193.046875 970.328125 193.046875 C 977.722656 200.527344 987.125 213.023438 987.15625 213.113281 C 1019.164062 268.175781 1034.230469 331.484375 1030.960938 395.847656 " fill-opacity="1" fill-rule="nonzero"/><path fill="#ee252b" d="M 704.382812 714.839844 C 692.515625 712.855469 641.65625 714.839844 557.308594 680.871094 C 507.347656 660.75 468.230469 624.363281 437.367188 584.589844 C 437.367188 584.589844 437.339844 584.558594 437.308594 584.527344 C 437.308594 584.527344 437.28125 584.527344 437.28125 584.5 C 436.160156 582.648438 413.957031 543.0625 404.300781 506.574219 C 430.855469 535.175781 521.621094 600.140625 629.394531 589.207031 C 642.785156 625.328125 677 683.546875 704.382812 714.839844 " fill-opacity="1" fill-rule="nonzero"/><path fill="#f35d6d" d="M 508.59375 302.921875 C 479.820312 338.605469 465.316406 360.636719 446.105469 337.929688 C 465.667969 323.980469 486.644531 312.246094 508.59375 302.921875 " fill-opacity="1" fill-rule="nonzero"/><path fill="#ced0cd" d="M 687.640625 257.148438 C 699.492188 282.089844 686.089844 313.238281 657.703125 326.722656 C 629.316406 340.210938 596.695312 330.925781 584.847656 305.988281 C 572.996094 281.050781 586.398438 249.898438 614.785156 236.414062 C 643.171875 222.925781 675.789062 232.210938 687.640625 257.148438 " fill-opacity="1" fill-rule="nonzero"/><path fill="#f1f1ef" d="M 685.332031 252.996094 C 696.058594 275.570312 683.464844 303.984375 657.199219 316.464844 C 630.933594 328.945312 600.945312 320.761719 590.21875 298.1875 C 579.488281 275.613281 592.085938 247.195312 618.351562 234.71875 C 644.617188 222.242188 674.605469 230.421875 685.332031 252.996094 " fill-opacity="1" fill-rule="nonzero"/><path fill="#ffffff" d="M 620.582031 275.726562 C 610.851562 294.28125 610.71875 309.386719 599.769531 300.105469 C 589.109375 291.070312 594.460938 270.980469 602.691406 258.367188 C 610.921875 245.75 630.824219 235.570312 640.835938 247.855469 C 645.363281 253.40625 630.046875 257.675781 620.582031 275.726562 " fill-opacity="1" fill-rule="nonzero"/></svg>